<svg width="52" height="61" viewBox="0 0 52 61" xmlns="http://www.w3.org/2000/svg"><path d="M47.147 20.033a4.26 4.26 0 00-4.264 4.26v15.1a4.26 4.26 0 004.264 4.267 4.26 4.26 0 004.263-4.267v-15.1a4.26 4.26 0 00-4.263-4.26zm-42.294 0a4.26 4.26 0 00-4.263 4.26v15.1a4.26 4.26 0 004.263 4.267 4.26 4.26 0 004.264-4.267v-15.1a4.258 4.258 0 00-4.264-4.26zm29.63-12.696l2.56-4.627c.32-.557.11-1.257-.443-1.567a1.148 1.148 0 00-1.57.45L32.4 6.327A17.212 17.212 0 0026 5.1c-2.28 0-4.44.44-6.4 1.223l-2.63-4.726a1.145 1.145 0 00-1.57-.45 1.15 1.15 0 00-.443 1.566l2.56 4.627c-4.61 2.627-7.69 7.323-7.69 12.693 0 .037 0 .07.006.114-.006.02-.006.043-.006.063v.003H42.17v-.18c.003-5.37-3.077-10.063-7.687-12.696zm-15.95 6.56a1.154 1.154 0 010-2.307c.637 0 1.16.517 1.16 1.153a1.164 1.164 0 01-1.16 1.154zm14.934 0a1.154 1.154 0 010-2.307c.63 0 1.146.517 1.146 1.153 0 .634-.513 1.154-1.146 1.154zM9.827 44.733a3.909 3.909 0 003.913 3.904h1.953v8.003a4.262 4.262 0 004.264 4.26 4.262 4.262 0 004.263-4.26v-8.003h3.553v8.003a4.256 4.256 0 004.257 4.26 4.26 4.26 0 004.27-4.26v-8.003h1.953a3.909 3.909 0 003.914-3.904v-23.64H9.827v23.64z"/></svg>