<svg width="36" height="25" viewBox="0 0 36 25" fill="none" xmlns="http://www.w3.org/2000/svg"><path d="M18 .75C10.021.75 3.04 3.328 3.04 3.328l-.743.274-.078.742-1.68 12.812c-.454 3.545 2.08 6.85 5.625 7.305 3.3.425 6.26-1.802 7.031-4.961h9.61c.776 3.16 3.73 5.386 7.031 4.96 3.545-.453 6.08-3.759 5.625-7.304l-1.68-12.812-.078-.742-.742-.274S25.979.75 18 .75zm0 2.5c6.855 0 12.51 1.904 13.438 2.227l1.523 12.03a3.948 3.948 0 01-3.438 4.454c-2.202.283-4.209-1.235-4.492-3.438l-.039-.43L24.836 17H11.164l-.156 1.094-.04.43c-.282 2.202-2.29 3.72-4.491 3.437a3.948 3.948 0 01-3.438-4.453L4.563 5.477C5.49 5.154 11.145 3.25 18 3.25zM9.25 7v2.5h-2.5V12h2.5v2.5h2.5V12h2.5V9.5h-2.5V7h-2.5zM25.5 7c-.688 0-1.25.562-1.25 1.25s.562 1.25 1.25 1.25c.689 0 1.25-.562 1.25-1.25S26.189 7 25.5 7zM23 9.5c-.688 0-1.25.562-1.25 1.25S22.312 12 23 12c.689 0 1.25-.562 1.25-1.25S23.689 9.5 23 9.5zm5 0c-.688 0-1.25.562-1.25 1.25S27.312 12 28 12c.689 0 1.25-.562 1.25-1.25S28.689 9.5 28 9.5zM25.5 12c-.688 0-1.25.562-1.25 1.25s.562 1.25 1.25 1.25c.689 0 1.25-.562 1.25-1.25S26.189 12 25.5 12z" fill="#fff"/></svg>