<svg width="33" height="30" viewBox="0 0 33 30" fill="none" xmlns="http://www.w3.org/2000/svg"><path d="M28.016.04a4.11 4.11 0 00-2.891 1.21L9.265 16.875l-.78.742a4.558 4.558 0 00-2.54 1.406c-1.04 1.138-1.245 2.53-1.64 4.024-.396 1.494-.899 3.16-2.11 5L.945 30H3.25c4.893 0 8.12-2.339 9.766-3.984l.039-.04c.752-.77 1.172-1.743 1.328-2.734l.625-.586 15.86-15.625v-.039a4.067 4.067 0 000-5.742C30.075.459 29.06.04 28.015.04zm0 2.46c.39 0 .761.176 1.093.508.67.669.67 1.557 0 2.226L17.82 16.406l-2.265-2.265L26.883 3.008c.332-.332.742-.508 1.133-.508zM13.758 15.898l2.265 2.266L14.148 20l-2.265-2.266 1.875-1.836zM9.46 20.04c.63.02 1.313.264 1.836.742.972.889.996 2.442-.04 3.477-1.083 1.084-3.007 2.48-5.82 3.008a22.53 22.53 0 001.29-3.555c.415-1.567.722-2.642 1.054-3.008.435-.473 1.05-.683 1.68-.664z" fill="#fff"/></svg>