<svg width="66" height="80" viewBox="0 0 66 80" xmlns="http://www.w3.org/2000/svg"><path class="ss" d="M34.677 0c-.517 0-1.05.027-1.597.07-14.09 1.11-10.353 16.023-10.567 20.993-.256 3.644-1 6.514-3.503 10.07-2.95 3.504-7.09 9.167-9.053 15.07C9.03 48.977 8.59 51.817 9 54.5c-.13.113-.253.227-.37.45-.867.893-1.497 2.003-2.207 2.797-.663.663-1.616.89-2.656 1.333-1.044.453-2.194.897-2.88 2.27a4.43 4.43 0 00-.44 2.003c0 .664.09 1.337.183 1.787.193 1.33.387 2.43.13 3.233-.827 2.267-.93 3.82-.35 4.95.58 1.114 1.783 1.564 3.13 2.004 2.703.666 6.367.45 9.25 1.996 3.087 1.557 6.22 2.237 8.72 1.567a5.894 5.894 0 004.027-3.15c1.956-.01 4.1-.897 7.533-1.113 2.33-.194 5.247.89 8.593.663.084.45.21.663.38 1.113l.01.01c1.304 2.594 3.71 3.774 6.28 3.57 2.57-.2 5.307-1.786 7.524-4.353 2.103-2.55 5.61-3.613 7.926-5.01 1.16-.663 2.097-1.563 2.164-2.843.076-1.334-.664-2.707-2.38-4.59v-.324l-.01-.01c-.567-.666-.834-1.783-1.127-3.086-.283-1.337-.607-2.62-1.64-3.487h-.01c-.197-.18-.41-.223-.627-.45a1.19 1.19 0 00-.633-.213c1.437-4.26.88-8.5-.577-12.314-1.776-4.7-4.883-8.793-7.25-11.61-2.653-3.35-5.253-6.523-5.203-11.23C46.58 13.29 47.28.02 34.677 0zm1.763 11.35h.043c.71 0 1.32.207 1.947.66.637.45 1.1 1.107 1.463 1.777.35.863.527 1.53.554 2.413 0-.067.02-.133.02-.197v.347a.284.284 0 01-.014-.07l-.013-.08a6.02 6.02 0 01-.5 2.353c-.157.417-.397.8-.71 1.117-.097-.053-.19-.1-.293-.14-.35-.15-.664-.213-.95-.443a4.369 4.369 0 00-.73-.22c.163-.197.483-.444.606-.66a3.94 3.94 0 00.294-1.34v-.064c.006-.45-.06-.903-.204-1.333-.15-.45-.336-.67-.61-1.113-.28-.22-.556-.44-.89-.44H36.4c-.31 0-.587.1-.873.44-.317.313-.554.69-.684 1.113-.176.423-.28.88-.3 1.333v.064c.007.296.027.596.067.89-.643-.224-1.46-.45-2.023-.674a5.462 5.462 0 01-.06-.663v-.067a5.907 5.907 0 01.5-2.563 3.612 3.612 0 011.433-1.777 3.285 3.285 0 011.98-.663zm-9.873.197h.12c.473 0 .9.16 1.33.45.486.43.88.96 1.146 1.55.3.663.47 1.336.51 2.223v.013c.024.447.02.67-.006.887v.267c-.1.023-.187.06-.277.08-.507.183-.913.45-1.31.666.04-.296.043-.596.01-.89v-.05c-.04-.443-.13-.663-.273-1.11a2.042 2.042 0 00-.554-.89.828.828 0 00-.61-.213h-.07c-.236.02-.433.137-.62.44-.213.257-.35.57-.4.9-.09.36-.116.73-.076 1.103v.047c.04.45.123.67.27 1.113.15.447.323.667.55.894.036.03.07.06.113.08-.233.19-.39.233-.587.453-.123.093-.266.2-.436.227a8.743 8.743 0 01-.917-1.34c-.32-.7-.487-1.46-.517-2.224a5.862 5.862 0 01.267-2.226 4.768 4.768 0 01.943-1.784c.427-.443.867-.666 1.394-.666zm4.57 5.686c1.103 0 2.44.217 4.05 1.33.976.667 1.743.897 3.51 1.56h.01c.85.454 1.35.887 1.593 1.33v-.436c.243.49.26 1.06.053 1.566-.41 1.037-1.72 2.147-3.546 2.81v.007c-.894.45-1.67 1.11-2.584 1.55-.92.45-1.96.973-3.373.89a3.796 3.796 0 01-1.493-.223c-.367-.2-.727-.42-1.074-.66-.65-.45-1.21-1.107-2.04-1.55v-.017h-.016c-1.334-.82-2.054-1.707-2.287-2.37-.23-.893-.017-1.563.643-2 .747-.45 1.267-.903 1.61-1.12.347-.247.477-.34.587-.437h.007v-.01c.563-.673 1.453-1.563 2.796-2.003a6.13 6.13 0 011.554-.217zm9.33 7.144c1.196 4.723 3.99 11.583 5.786 14.91.954 1.78 2.85 5.53 3.674 10.08.52-.017 1.096.06 1.71.213 2.153-5.57-1.82-11.557-3.63-13.22-.737-.67-.774-1.117-.41-1.117 1.963 1.78 4.55 5.24 5.486 9.19.43 1.784.53 3.68.07 5.567.224.093.45.203.684.223 3.44 1.78 4.71 3.127 4.1 5.124v-.144c-.204-.01-.4 0-.604 0h-.05c.504-1.556-.606-2.75-3.55-4.08-3.05-1.333-5.486-1.12-5.903 1.55-.023.144-.04.22-.057.45-.226.077-.463.177-.696.214-1.434.893-2.207 2.23-2.644 3.956-.433 1.777-.566 3.854-.683 6.23v.01c-.07 1.114-.57 2.794-1.063 4.504-5 3.573-11.934 5.126-17.83 1.113a8.817 8.817 0 00-1.34-1.777 4.834 4.834 0 00-.917-1.113c.607 0 1.127-.097 1.55-.223a2.049 2.049 0 001.047-1.114c.36-.89 0-2.323-1.15-3.876-1.15-1.557-3.104-3.317-5.96-5.07-2.1-1.33-3.287-2.9-3.834-4.654-.55-1.78-.476-3.616-.05-5.483.817-3.567 2.91-7.033 4.247-9.21.357-.217.123.45-1.36 3.247-1.32 2.503-3.803 8.323-.407 12.846.127-3.296.86-6.55 2.157-9.586 1.88-4.26 5.81-11.68 6.12-17.56.16.12.723.45.963.673.727.443 1.267 1.11 1.967 1.55.703.67 1.59 1.117 2.92 1.117.13.01.25.02.37.02 1.37 0 2.43-.447 3.32-.894.967-.446 1.737-1.113 2.467-1.333h.016c1.557-.45 2.787-1.34 3.484-2.333zm7.286 29.86c.124 2.003 1.144 4.15 2.94 4.59 1.96.446 4.78-1.11 5.97-2.55l.704-.03c1.05-.027 1.923.033 2.823.89l.01.01c.693.663 1.017 1.77 1.303 2.92.284 1.336.514 2.6 1.364 3.553 1.62 1.757 2.15 3.02 2.12 3.8l.01-.02v.06l-.01-.04c-.05.873-.617 1.32-1.66 1.983-2.1 1.337-5.82 2.374-8.19 5.234-2.06 2.456-4.57 3.796-6.787 3.97-2.213.176-4.123-.667-5.247-2.994l-.016-.01c-.7-1.336-.4-3.416.186-5.633.587-2.227 1.427-4.483 1.544-6.327.123-2.38.253-4.45.65-6.046.4-1.55 1.026-2.657 2.136-3.28l.15-.074v-.006zm-36.05.163h.034c.176 0 .35.017.523.047 1.253.183 2.353 1.11 3.41 2.506l3.033 5.547.01.01c.81 1.777 2.514 3.547 3.964 5.46 1.446 1.993 2.566 3.77 2.43 5.233v.02c-.19 2.48-1.597 3.827-3.75 4.314-2.15.45-5.067.006-7.984-1.547-3.226-1.787-7.06-1.563-9.523-2.007-1.23-.22-2.037-.67-2.41-1.336-.37-.664-.377-2.004.41-4.1v-.01l.007-.01c.39-1.114.1-2.51-.09-3.73-.184-1.337-.277-2.364.143-3.134.533-1.113 1.32-1.33 2.297-1.776.983-.45 2.136-.674 3.053-1.564h.007v-.01c.853-.893 1.483-2.003 2.226-2.793.634-.67 1.267-1.12 2.21-1.12zm23.864-30.247c-1.45.67-3.15 1.784-4.96 1.784-1.807 0-3.234-.89-4.264-1.554-.516-.446-.933-.893-1.246-1.116-.547-.447-.48-1.114-.247-1.114.363.054.43.45.663.67.32.22.717.664 1.204 1.11.97.667 2.266 1.557 3.886 1.557 1.617 0 3.51-.89 4.66-1.553.65-.45 1.484-1.114 2.16-1.557.52-.457.497-.893.93-.893.43.053.114.446-.49 1.11-.603.45-1.536 1.116-2.3 1.56v-.004h.004zm-3.607-5.28V18.8c-.02-.063.043-.14.097-.167.246-.143.6-.09.866.014.21 0 .534.223.5.45-.02.163-.283.22-.45.22-.183 0-.306-.144-.47-.227-.173-.06-.486-.027-.543-.217zm-1.837 0c-.066.194-.376.164-.553.22-.157.084-.287.227-.463.227-.17 0-.437-.063-.457-.227-.03-.22.293-.443.5-.443.27-.103.613-.157.863-.017.064.03.12.1.1.167v.07h.01v.003z"/></svg>