<svg version="1.1" id="Capa_1" xmlns="http://www.w3.org/2000/svg" xmlns:xlink="http://www.w3.org/1999/xlink" x="0" y="0" viewBox="0 0 512.005 512.005" xml:space="preserve"><path d="M333.854 332.81l55.531-77.958c45.813-64.481 38.466-151.836-17.471-207.752-62.921-62.793-165.292-62.815-228.192.021-55.937 55.895-63.284 143.25-17.471 207.709l55.062 77.445c-68.218 12.131-122.874 41.328-122.874 86.629 0 61.127 99.38 93.101 197.564 93.101 98.163 0 197.564-31.973 197.564-93.101 0-44.595-52.948-73.621-119.713-86.094zM161.065 230.098c-33.703-47.394-28.3-111.661 12.858-152.754 23.131-23.11 53.502-34.664 83.895-34.664 30.371 0 60.743 11.555 83.853 34.643 41.157 41.093 46.561 105.36 12.879 152.754l-96.838 135.967-96.647-135.946zm94.938 239.17c-100.192 0-154.847-33.297-154.847-50.384 0-14.161 37.954-39.299 107.945-47.522l31.204 43.891a21.332 21.332 0 0017.407 8.992c6.899 0 13.392-3.332 17.386-8.949l31.012-43.528c67.941 8.607 104.741 33.169 104.741 47.116-.001 17.086-54.657 50.384-154.848 50.384z"/><path d="M257.711 88.258c-40.282 0-73.045 32.764-73.045 73.045 0 40.282 32.764 73.045 73.045 73.045 40.26 0 73.045-32.764 73.045-73.045.001-40.282-32.763-73.045-73.045-73.045zm0 103.374c-16.724 0-30.329-13.605-30.329-30.329s13.605-30.329 30.329-30.329 30.329 13.605 30.329 30.329-13.605 30.329-30.329 30.329z"/></svg>