<svg width="34" height="34" viewBox="0 0 34 34" fill="none" xmlns="http://www.w3.org/2000/svg"><path d="M17 .555l-.703.468-15 10.04-.547.351v11.172l.547.352 15 10.039.703.468.703-.468 15-10.04.547-.351V11.414l-.547-.351-15-10.04L17 .555zm-1.25 3.828v6.797l-6.445 4.336-5.04-3.399L15.75 4.383zm2.5 0l11.484 7.734-5.039 3.399-6.445-4.336V4.383zM17 13.367L22.43 17 17 20.633 11.57 17 17 13.367zM3.25 14.422L7.078 17 3.25 19.578v-5.156zm27.5 0v5.156L26.922 17l3.828-2.578zM9.344 18.484l6.406 4.336v6.797L4.266 21.883l5.078-3.399zm15.312 0l5.078 3.399-11.484 7.734V22.82l6.406-4.336z" fill="#fff"/></svg>