<svg width="84" height="60" viewBox="0 0 84 60" fill="none" xmlns="http://www.w3.org/2000/svg"><path d="M83.458 15.238c-.07-.427-.104-.659-.104-.659l-.108.024C81.437 6.64 73.925.663 64.916.663c-10.354 0-18.75 7.893-18.75 17.626 0 9.732 8.396 17.625 18.75 17.625.93 0 1.821-.134 2.709-.255-.288.909-.583 1.833-1.058 2.663-.475 1.207-1.217 2.252-1.955 3.306-.616 1.14-1.704 1.911-2.504 2.887-.837.947-1.979 1.578-2.883 2.365-.888.823-2.05 1.234-2.975 1.814-.967.52-1.808 1.096-2.708 1.37-.867.337-1.625.627-2.246.87-1.259.49-1.975.772-1.975.772l2.016 7.594s.909-.204 2.488-.564c.796-.188 1.767-.407 2.87-.67 1.13-.196 2.334-.732 3.676-1.222 1.32-.56 2.858-.932 4.283-1.829 1.433-.854 3.088-1.566 4.546-2.71 1.412-1.18 3.117-2.201 4.375-3.697 1.375-1.403 2.733-2.875 3.787-4.552 1.221-1.598 2.05-3.352 2.925-5.087a41.662 41.662 0 001.95-5.233c.988-3.455 1.43-6.737 1.6-9.545.142-2.812.059-5.15-.116-6.842a25.948 25.948 0 00-.263-2.111zm-45.833 0c-.07-.427-.104-.659-.104-.659l-.109.024C35.604 6.64 28.092.663 19.083.663 8.73.664.333 8.557.333 18.29c0 9.732 8.396 17.625 18.75 17.625.93 0 1.821-.134 2.709-.255-.288.909-.584 1.833-1.059 2.663-.475 1.207-1.216 2.252-1.954 3.306-.617 1.14-1.704 1.911-2.504 2.887-.838.947-1.98 1.578-2.883 2.365-.888.823-2.05 1.234-2.975 1.814-.967.52-1.809 1.096-2.709 1.37-.866.337-1.625.627-2.246.87-1.254.482-1.97.764-1.97.764l2.016 7.594s.909-.203 2.488-.564c.796-.188 1.766-.407 2.87-.67 1.13-.195 2.334-.732 3.676-1.222 1.32-.56 2.858-.932 4.283-1.829 1.433-.853 3.087-1.566 4.546-2.71 1.412-1.179 3.116-2.201 4.375-3.697 1.375-1.403 2.733-2.875 3.787-4.552 1.221-1.598 2.05-3.352 2.925-5.087a41.686 41.686 0 001.95-5.233c.988-3.454 1.43-6.737 1.6-9.545.142-2.812.059-5.15-.116-6.842-.067-.791-.18-1.57-.267-2.104z" fill="#ECEFF9"/></svg>