<svg width="24" height="30" viewBox="0 0 24 30" fill="none" xmlns="http://www.w3.org/2000/svg">
<path d="M8.25 0C6.88281 0 5.75 1.13281 5.75 2.5V17.5C5.75 18.8672 6.88281 20 8.25 20H15.75C17.1172 20 18.25 18.8672 18.25 17.5V2.5C18.25 1.13281 17.1172 0 15.75 0H8.25ZM8.25 2.5H15.75V17.5H8.25V2.5ZM0.75 12.5V17.5C0.75 21.626 4.12402 25 8.25 25H10.75V27.5H5.75V30H18.25V27.5H13.25V25H15.75C19.876 25 23.25 21.626 23.25 17.5V12.5H20.75V17.5C20.75 20.2734 18.5234 22.5 15.75 22.5H8.25C5.47656 22.5 3.25 20.2734 3.25 17.5V12.5H0.75Z" fill="white"/>
</svg>
