<svg width="80" height="80" viewBox="0 0 80 80" xmlns="http://www.w3.org/2000/svg"><path d="M39.997 0C18.09 0 .333 17.91.333 40c0 22.093 17.757 40 39.664 40C61.9 80 79.66 62.093 79.66 40c0-22.09-17.76-40-39.667-40h.004zm0 1.76c10.126 0 19.65 3.98 26.81 11.2A38.153 38.153 0 0177.913 40c0 10.213-3.943 19.817-11.106 27.04A37.512 37.512 0 0140 78.24a37.51 37.51 0 01-26.813-11.2A38.157 38.157 0 012.077 40c0-10.213 3.946-19.817 11.106-27.04A37.506 37.506 0 0140 1.76h-.003zm-1.984 14.077c-6.46 1.733-12.44 5.053-20.41 14.193-7.973 9.14-6.46 16.687-6.46 16.687s2.2-5.194 7.49-10.664c2.507-2.59 4.38-3.456 5.66-3.46A1.993 1.993 0 0126.4 34.6v18.557c0 1.833-1.18 2.23-2.267 2.21a6.09 6.09 0 01-1.79-.34c5.434 7.893 18.42 9 18.42 9l5.704-6.094.133.117 5.227 4.453c9.553-5.676 14.16-16.2 14.16-16.2-4.264 4.51-6.98 5.564-8.594 5.557-1.43-.01-1.99-.85-1.99-.85-.076-.39-.21-6.033-.26-11.683-.046-5.854-.003-11.71.29-11.727 1.647-3.097 6.91-9.34 6.91-9.34-9.826 1.937-15.186 8.377-15.186 8.377-1.584-1.247-4.814-1.037-4.814-1.037 1.514.833 3.024 3.253 3.024 5.26v19.733s-3.3 2.91-5.84 2.91c-1.504 0-2.43-.823-2.937-1.496a3.944 3.944 0 01-.5-.86v-24.37a2.114 2.114 0 01-1.21.41c-.54 0-1.1-.274-1.48-1.067-.287-.6-.47-1.5-.47-2.807 0-4.5 5.083-7.476 5.083-7.476z"/></svg>