<?xml version="1.0" encoding="iso-8859-1"?>
<!-- Generator: Adobe Illustrator 19.0.0, SVG Export Plug-In . SVG Version: 6.00 Build 0)  -->
<svg version="1.1" id="Capa_1" xmlns="http://www.w3.org/2000/svg" xmlns:xlink="http://www.w3.org/1999/xlink" x="0px" y="0px"
	 viewBox="0 0 512.005 512.005" style="enable-background:new 0 0 512.005 512.005;" xml:space="preserve">
<g>
	<g>
		<path d="M333.854,332.81l55.531-77.958c45.813-64.481,38.466-151.836-17.471-207.752c-62.921-62.793-165.292-62.815-228.192,0.021
			c-55.937,55.895-63.284,143.25-17.471,207.709l55.062,77.445c-68.218,12.131-122.874,41.328-122.874,86.629
			c0,61.127,99.38,93.101,197.564,93.101c98.163,0,197.564-31.973,197.564-93.101C453.567,374.309,400.619,345.283,333.854,332.81z
			 M161.065,230.098c-33.703-47.394-28.3-111.661,12.858-152.754c23.131-23.11,53.502-34.664,83.895-34.664
			c30.371,0,60.743,11.555,83.853,34.643c41.157,41.093,46.561,105.36,12.879,152.754l-96.838,135.967L161.065,230.098z
			 M256.003,469.268c-100.192,0-154.847-33.297-154.847-50.384c0-14.161,37.954-39.299,107.945-47.522l31.204,43.891
			c3.994,5.639,10.487,8.992,17.407,8.992c6.899,0,13.392-3.332,17.386-8.949l31.012-43.528
			c67.941,8.607,104.741,33.169,104.741,47.116C410.85,435.97,356.194,469.268,256.003,469.268z"/>
	</g>
</g>
<g>
	<g>
		<path d="M257.711,88.258c-40.282,0-73.045,32.764-73.045,73.045c0,40.282,32.764,73.045,73.045,73.045
			c40.26,0,73.045-32.764,73.045-73.045C330.757,121.021,297.993,88.258,257.711,88.258z M257.711,191.632
			c-16.724,0-30.329-13.605-30.329-30.329s13.605-30.329,30.329-30.329s30.329,13.605,30.329,30.329
			S274.435,191.632,257.711,191.632z"/>
	</g>
</g>
<g>
</g>
<g>
</g>
<g>
</g>
<g>
</g>
<g>
</g>
<g>
</g>
<g>
</g>
<g>
</g>
<g>
</g>
<g>
</g>
<g>
</g>
<g>
</g>
<g>
</g>
<g>
</g>
<g>
</g>
</svg>
