<?xml version="1.0" encoding="utf-8"?><svg width="80" height="40" xmlns="http://www.w3.org/2000/svg" viewBox="0 0 80 40"><path d="M3.667.167C1.62.167 0 1.767 0 3.767a3.6 3.6 0 003.667 3.6c2.066 0 3.7-1.6 3.7-3.6s-1.634-3.6-3.7-3.6zm25.366.066c-11.2 0-18.2 7.634-18.2 19.767 0 12.233 7 19.833 18.2 19.833 11.134 0 18.167-7.6 18.167-19.833C47.2 7.867 40.167.233 29.033.233zm36.134 0c-8.334 0-14.267 4.6-14.267 11.434 0 5.433 3.367 8.833 10.433 10.466l4.967 1.2c4.833 1.1 6.8 2.7 6.8 5.467 0 3.2-3.233 5.467-7.833 5.467-4.7 0-8.234-2.3-8.6-5.834H50c.267 7.067 6.067 11.4 14.867 11.4C74.167 39.833 80 35.267 80 28c0-5.7-3.333-8.933-11.067-10.7l-4.433-1c-4.7-1.133-6.633-2.633-6.633-5.167 0-3.2 2.933-5.333 7.266-5.333 4.367 0 7.367 2.167 7.7 5.733h6.534C79.2 4.8 73.633.233 65.167.233zM29.033 6.067C35.833 6.067 40.2 11.5 40.2 20c0 8.567-4.367 14-11.167 14-6.866 0-11.2-5.433-11.2-14 0-8.5 4.334-13.933 11.2-13.933zM.37 11.033V39.2H7V11.033H.367.37z"/></svg>