<?xml version="1.0" encoding="utf-8"?><svg width="18" height="20" fill="none" xmlns="http://www.w3.org/2000/svg" viewBox="0 0 18 20"><path d="M12.217 5.94L6.435 11.89a1.055 1.055 0 00-.312.748 1.08 1.08 0 00.299.753 1.02 1.02 0 00.732.308.996.996 0 00.726-.321l5.783-5.95a3.204 3.204 0 00.899-2.233c0-.837-.323-1.64-.899-2.232a3.024 3.024 0 00-2.168-.924c-.814 0-1.594.332-2.17.924L3.544 8.916a5.268 5.268 0 00-1.136 1.707 5.392 5.392 0 00-.024 4.057c.257.644.636 1.23 1.114 1.722A5.105 5.105 0 005.17 17.55a4.985 4.985 0 003.942-.026 5.11 5.11 0 001.66-1.169l5.783-5.95L18 11.89l-5.783 5.952a7.145 7.145 0 01-2.322 1.596 6.981 6.981 0 01-5.477 0 7.146 7.146 0 01-2.322-1.596 7.383 7.383 0 01-1.551-2.39 7.552 7.552 0 010-5.636 7.383 7.383 0 011.551-2.39l5.784-5.95A5.035 5.035 0 0111.476 0a5.04 5.04 0 013.57 1.54 5.338 5.338 0 011.497 3.675 5.343 5.343 0 01-1.435 3.7l-5.782 5.954a3.063 3.063 0 01-.995.684 2.993 2.993 0 01-2.348 0 3.063 3.063 0 01-.995-.685 3.164 3.164 0 01-.665-1.024 3.236 3.236 0 010-2.416c.154-.383.38-.731.665-1.024l5.783-5.952 1.446 1.488z" fill="#9BE2F9"/></svg>